PathFileType	4	(X/Y/Z)	C:\Users\Basilio\Documents\Thesis Gigler\squatting_fais\c3dfiles\054\SLS_front_pre1\markers_experimental.trc
DataRate	CameraRate	NumFrames	NumMarkers	Units	OrigDataRate	OrigDataStartFrame	OrigNumFrames
200.000000	200.000000	4	61	mm	200.000000	1006	1342
Frame#	Time	FHD			LBHD			RBHD			C7			T10			CLAV			LSHO			LUUPA			LMUPA			LDUPA			LLEP			LMEP			LRAD			LUL			LRFIN			RSHO			RUPA1			RMUPA			RDUPA			RLEP			RMEP			RRAD			RUL			RUFIN			LASI			RASI			USACR			LSACR			RSACR			LTHI1			LTHI2			LTHI3			LTHI4			LLFC			LMFC			LTIB1			LTIB2			LTIB3			LTIB4			LLMAL			LMMAL			LHEE			LMT1			LMT2			LMT5			RTHI			RTHI2			RTHI3			RTHI4			RLFC			RMFC			RTIB1			RTIB2			RTIB3			RTIB4			RLMAL			RMMAL			RHEE			RMT1			RMT2			RMT5			
		X1	Y1	Z1	X2	Y2	Z2	X3	Y3	Z3	X4	Y4	Z4	X5	Y5	Z5	X6	Y6	Z6	X7	Y7	Z7	X8	Y8	Z8	X9	Y9	Z9	X10	Y10	Z10	X11	Y11	Z11	X12	Y12	Z12	X13	Y13	Z13	X14	Y14	Z14	X15	Y15	Z15	X16	Y16	Z16	X17	Y17	Z17	X18	Y18	Z18	X19	Y19	Z19	X20	Y20	Z20	X21	Y21	Z21	X22	Y22	Z22	X23	Y23	Z23	X24	Y24	Z24	X25	Y25	Z25	X26	Y26	Z26	X27	Y27	Z27	X28	Y28	Z28	X29	Y29	Z29	X30	Y30	Z30	X31	Y31	Z31	X32	Y32	Z32	X33	Y33	Z33	X34	Y34	Z34	X35	Y35	Z35	X36	Y36	Z36	X37	Y37	Z37	X38	Y38	Z38	X39	Y39	Z39	X40	Y40	Z40	X41	Y41	Z41	X42	Y42	Z42	X43	Y43	Z43	X44	Y44	Z44	X45	Y45	Z45	X46	Y46	Z46	X47	Y47	Z47	X48	Y48	Z48	X49	Y49	Z49	X50	Y50	Z50	X51	Y51	Z51	X52	Y52	Z52	X53	Y53	Z53	X54	Y54	Z54	X55	Y55	Z55	X56	Y56	Z56	X57	Y57	Z57	X58	Y58	Z58	X59	Y59	Z59	X60	Y60	Z60	X61	Y61	Z61	

1007	5.03	-195.1941680908204	1795.751342773438	-1090.51708984375	-359.0674743652344	1745.991455078125	-1158.375244140625	-374.4314880371094	1747.889770507813	-1018.560119628906	-408.8526306152345	1573.638305664063	-1072.85595703125	-432.091522216797	1242.939575195313	-1068.637939453125	-263.0916442871094	1519.85693359375	-1083.283813476563	-342.2147216796876	1569.424560546875	-1232.817260742188	-202.950424194336	1451.591186523438	-1367.574462890625	-168.4800872802735	1485.9619140625	-1356.743774414063	-135.0755157470703	1442.822998046875	-1383.06005859375	-77.29073333740236	1446.429077148438	-1384.73095703125	-74.01260375976564	1379.862548828125	-1341.828735351563	183.3458251953125	1466.58740234375	-1313.779052734375	194.8756866455079	1436.69580078125	-1384.881591796875	273.3957824707032	1485.897094726563	-1334.710205078125	-320.1879882812501	1571.263549804688	-929.9334716796877	-167.3380126953125	1453.16552734375	-806.5413818359377	-131.8849334716797	1483.47216796875	-818.089294433594	-99.51178741455081	1435.744140625	-796.2376098632815	-54.99178314208986	1430.201416015625	-798.6329345703127	-60.00060272216798	1374.558837890625	-850.7705078125002	205.7577362060547	1489.068481445313	-904.254821777344	212.3210144042969	1444.136840820313	-837.295349121094	284.3472900390626	1513.492065429688	-889.082702636719	-241.6153564453126	1062.489868164063	-1170.940673828125	-246.4633178710938	1102.542602539063	-923.3280029296877	-433.7781677246095	1155.05126953125	-1056.173095703125	-436.4521789550782	1120.135375976563	-1079.385131835938	-439.1481018066407	1126.632568359375	-1022.746398925781	-325.7589111328126	812.430114746094	-1223.315063476563	-290.8954467773438	734.7424926757814	-1213.5380859375	-244.4989471435547	740.6295776367189	-1209.73876953125	-317.1042785644532	683.6347656250001	-1190.542602539063	-310.2270812988282	533.0818481445314	-1157.613647460938	-279.6448059082032	542.5841064453126	-1020.799743652344	-264.9938659667969	375.3952636718751	-1089.029418945313	-313.5064392089844	322.7143554687501	-1139.935791015625	-274.3384704589844	323.1636657714844	-1115.999633789063	-280.8666381835938	250.204330444336	-1073.93017578125	-339.8813171386719	113.6465759277344	-1098.337158203125	-308.8272094726563	136.4637908935547	-1009.620544433594	-408.8006286621095	105.8929138183594	-1037.909057617188	-198.8815460205079	55.41709899902345	-1017.666870117188	-189.5158386230469	53.89270019531251	-1066.890014648438	-242.6791076660157	39.33636093139649	-1117.707763671875	-197.1690826416016	815.2597656250002	-828.0408935546877	-137.8983306884766	784.373962402344	-832.2422485351565	-109.6237716674805	799.1293945312502	-841.6359863281252	-128.0254364013672	702.0166625976564	-842.0252075195315	-110.2823257446289	612.3820800781251	-847.5198974609377	-69.09017944335939	630.0683593750001	-977.624938964844	-43.47212219238282	513.5339965820314	-855.560729980469	-107.0590362548828	431.2082519531251	-829.6182250976565	-61.15263748168947	429.2590332031251	-838.624938964844	-40.24164581298829	383.1429138183594	-864.5530395507815	-82.75262451171876	203.8923492431641	-855.7003173828127	-35.31020736694337	221.2548065185547	-936.657897949219	-130.9895172119141	162.6818237304688	-921.9959716796877	91.32238769531251	157.6833190917969	-897.905700683594	86.18346405029298	168.9105529785157	-850.9678344726565	32.45505905151368	149.539047241211	-809.9141235351565	
1008	5.035	-195.1605987548829	1795.642211914063	-1090.270263671875	-358.9020385742188	1746.035034179688	-1158.418212890625	-374.5447998046876	1747.938720703125	-1018.751708984375	-408.8569641113282	1573.49267578125	-1072.91064453125	-431.819549560547	1242.876708984375	-1068.605712890625	-263.0195922851563	1519.804321289063	-1083.236450195313	-342.0930175781251	1569.311767578125	-1232.874633789063	-202.8155670166016	1451.349853515625	-1367.47509765625	-168.2968139648438	1485.714965820313	-1356.700805664063	-134.8938903808594	1442.606079101563	-1382.96044921875	-77.16347503662111	1446.268920898438	-1384.614379882813	-73.92351531982423	1379.742919921875	-1341.769165039063	183.5448760986328	1466.520263671875	-1313.651611328125	196.5104980468751	1436.20751953125	-1384.936401367188	273.6509094238282	1485.662475585938	-1334.577880859375	-320.2171325683594	1571.266723632813	-929.9094848632815	-167.4293670654297	1453.113403320313	-806.4868164062502	-131.9959869384766	1483.350219726563	-818.0322875976565	-99.56682586669925	1435.637329101563	-796.1292724609377	-55.21549606323244	1430.128784179688	-798.512145996094	-60.03777313232423	1374.51708984375	-850.7070312500002	205.732406616211	1488.911987304688	-904.0750122070315	212.3126373291016	1444.003295898438	-837.1971435546877	284.3045654296876	1513.302612304688	-888.9387817382815	-241.4907836914063	1062.490112304688	-1170.774658203125	-246.1859283447266	1102.387573242188	-923.2644653320315	-433.354705810547	1154.90576171875	-1056.211181640625	-436.0877075195314	1120.085205078125	-1079.432739257813	-438.8140869140626	1126.491455078125	-1022.833312988281	-325.4089355468751	812.3799438476565	-1223.22705078125	-290.7271728515626	734.7355957031251	-1213.487060546875	-244.2061157226563	740.6187133789064	-1209.767456054688	-317.4579772949219	683.7698974609376	-1190.353393554688	-310.0709533691407	533.1145019531251	-1157.668334960938	-279.6022644042969	542.5762939453126	-1020.7998046875	-264.8474121093751	375.3708496093751	-1088.99658203125	-313.3990173339844	322.7477416992188	-1139.96337890625	-274.2759704589844	323.1856994628907	-1115.980590820313	-280.8566284179688	250.2007904052735	-1073.891967773438	-339.8669128417969	113.6489868164063	-1098.340576171875	-308.8069763183594	136.4711303710938	-1009.6005859375	-408.7530212402345	105.9317245483399	-1037.96630859375	-198.8711547851563	55.39778518676759	-1017.667419433594	-189.4573059082032	54.01513671875001	-1066.909912109375	-242.6156158447266	39.31881332397462	-1117.737670898438	-197.2393493652344	814.8309326171877	-828.012878417969	-137.9880523681641	784.0489501953127	-832.1016845703127	-109.7645492553711	798.7224121093752	-841.4879150390627	-128.2476959228516	701.7487182617189	-841.815124511719	-110.4089889526367	612.0991821289064	-847.4255371093752	-69.15534973144533	629.8251342773439	-977.5601806640627	-43.60859680175782	513.2570800781251	-855.5384521484377	-107.2558364868164	430.8146057128907	-829.583190917969	-61.3890724182129	428.8731689453126	-838.5198364257815	-40.35712432861329	382.9032592773438	-864.5357666015627	-82.97959136962892	203.5635070800782	-855.787536621094	-35.50590896606446	220.9484863281251	-936.5228271484377	-131.148178100586	162.386703491211	-922.0989379882815	91.03442382812501	157.4635620117188	-897.7026367187502	85.88256835937501	168.2904205322266	-850.7181396484377	32.23570251464844	149.0704803466797	-809.8897705078127	
1009	5.04	-195.0616607666016	1795.5068359375	-1090.022583007813	-358.6905212402344	1745.999877929688	-1158.499633789063	-374.6716918945313	1747.951293945313	-1018.828674316406	-408.8438720703126	1573.405395507813	-1072.93896484375	-431.6658630371095	1242.790771484375	-1068.6005859375	-262.9375915527344	1519.772094726563	-1083.164916992188	-341.9747924804688	1569.132934570313	-1232.880493164063	-202.6077423095704	1451.127563476563	-1367.3447265625	-168.1947021484375	1485.59423828125	-1356.619262695313	-135.1057739257813	1442.497436523438	-1382.801025390625	-76.97295379638673	1446.053100585938	-1384.5361328125	-73.7158889770508	1379.53564453125	-1341.630004882813	183.7141265869141	1466.3974609375	-1313.5283203125	196.4453430175782	1436.092895507813	-1384.797119140625	273.5693054199219	1485.717895507813	-1334.493896484375	-320.2321777343751	1571.250122070313	-929.8667602539065	-167.501220703125	1453.031005859375	-806.416687011719	-131.9546813964844	1483.251342773438	-817.959655761719	-99.73896026611331	1435.558837890625	-795.9869384765627	-55.36502075195314	1430.01708984375	-798.2349853515627	-60.09735488891603	1374.432983398438	-850.6328735351565	205.6969299316407	1488.760864257813	-903.9520263671877	212.2575225830079	1443.788452148438	-837.0669555664065	284.2044372558594	1512.978759765625	-888.7380371093752	-241.191879272461	1062.466674804688	-1170.697631835938	-246.0379943847657	1102.227661132813	-923.1240844726565	-433.1789855957032	1154.765869140625	-1056.218139648438	-434.8945312500001	1119.780883789063	-1079.648803710938	-438.584442138672	1126.399291992188	-1022.907409667969	-324.9912414550782	812.4231567382815	-1223.238037109375	-290.4816894531251	734.7169799804689	-1213.474975585938	-243.5570983886719	740.3911743164064	-1209.716796875	-316.9676818847657	683.7240600585939	-1190.461303710938	-309.8640441894532	533.0929565429689	-1157.677978515625	-279.5881958007813	542.5494384765626	-1020.778869628906	-264.7413330078126	375.3876342773438	-1088.959838867188	-313.1908569335938	322.7579650878907	-1139.93408203125	-274.2152099609376	323.1779785156251	-1115.916015625	-280.8590393066407	250.2174224853516	-1073.819946289063	-339.8992614746094	113.6461029052735	-1098.336303710938	-308.8218688964844	136.4552001953125	-1009.629455566406	-408.8002319335939	105.9449920654297	-1037.911865234375	-198.8527984619141	55.40230560302736	-1017.674194335938	-189.5021209716797	53.94163894653322	-1066.953002929688	-242.6685180664063	39.30017089843751	-1117.73876953125	-197.2014160156251	814.6013793945315	-828.0206298828127	-138.1512756347657	783.688415527344	-831.8033447265627	-109.7566528320313	798.3762207031252	-841.3110961914065	-128.5099029541016	701.1840820312501	-841.7476196289065	-110.6685104370117	611.7183837890626	-847.3068847656252	-69.2526092529297	629.5345458984376	-977.4272460937502	-43.88327789306641	512.8619384765626	-855.4360351562502	-107.5444412231446	430.366668701172	-829.5542602539065	-61.55559539794923	428.650115966797	-838.4678955078127	-40.49042892456055	382.6027832031251	-864.5357055664065	-83.2169876098633	203.1193847656251	-855.7786865234377	-35.66801071166993	220.6175842285157	-936.397399902344	-131.2831115722657	162.107406616211	-922.1846923828127	90.8234100341797	157.1164855957032	-897.5079345703127	85.76036834716798	167.896224975586	-850.5569458007815	31.90061950683594	148.5838928222657	-809.7568969726565	
1010	5.045	-195.0839538574219	1795.397583007813	-1089.77197265625	-358.6183471679688	1746.007446289063	-1158.539672851563	-374.8329467773438	1747.951171875	-1018.8603515625	-408.8150634765626	1573.347412109375	-1072.964111328125	-431.446258544922	1242.755615234375	-1068.53369140625	-262.8660278320313	1519.792358398438	-1083.127807617188	-341.8980102539063	1569.042846679688	-1232.8720703125	-202.5256958007813	1450.90185546875	-1367.246948242188	-168.0170135498047	1485.443969726563	-1356.511352539063	-134.6585693359375	1442.246704101563	-1382.785888671875	-76.80361938476564	1445.824584960938	-1384.453002929688	-73.59370422363283	1379.224609375	-1341.46240234375	183.8779449462891	1466.335327148438	-1313.377807617188	196.5480499267579	1435.889526367188	-1384.623413085938	273.6376953125001	1485.609741210938	-1334.366455078125	-320.2670898437501	1571.203125	-929.8244628906252	-167.5027008056641	1452.960693359375	-806.410583496094	-132.0096588134766	1483.192626953125	-817.872497558594	-99.7714767456055	1435.536865234375	-795.9403076171877	-55.3905601501465	1429.922119140625	-798.144958496094	-60.06809234619142	1374.385986328125	-850.451110839844	205.6261596679688	1488.5927734375	-903.7888793945315	211.9991149902344	1443.63720703125	-836.924743652344	284.0886535644532	1512.75830078125	-888.610290527344	-240.8057556152344	1062.497680664063	-1170.644775390625	-245.9212188720704	1102.157958984375	-922.9503173828127	-432.9742736816407	1154.691162109375	-1056.267333984375	-434.5693664550782	1119.69580078125	-1079.697265625	-438.2344360351564	1126.263916015625	-1022.973266601563	-324.5963134765626	812.4453735351565	-1223.295288085938	-290.0674743652344	734.7604370117189	-1213.4638671875	-243.6064605712891	740.5490722656251	-1209.778442382813	-316.6815795898438	683.7072143554689	-1190.49658203125	-309.6701049804688	533.0704345703126	-1157.656616210938	-279.5708618164063	542.5617675781251	-1020.723571777344	-264.5906677246094	375.3730468750001	-1088.881591796875	-313.0929260253907	322.7837524414063	-1139.858642578125	-274.1389465332032	323.1584472656251	-1115.799194335938	-280.8004760742188	250.2227935791016	-1073.712768554688	-339.8604431152344	113.634147644043	-1098.33740234375	-308.8488159179688	136.44482421875	-1009.594970703125	-408.7596740722657	105.9164123535157	-1037.938720703125	-198.8822326660157	55.39071655273439	-1017.656005859375	-189.5157012939453	53.90784072875978	-1066.931396484375	-242.6551513671876	39.34004974365235	-1117.727294921875	-197.2271881103516	814.3989868164065	-827.997253417969	-138.4322814941407	783.433288574219	-831.5264892578127	-109.976547241211	798.0252075195315	-841.0229492187502	-128.6384735107422	700.9058227539064	-841.7639770507815	-110.7971115112305	611.3646240234376	-847.2708129882815	-69.37481689453126	629.2017211914064	-977.2612304687502	-44.05999755859376	512.5550537109376	-855.381286621094	-107.7403717041016	430.0517578125001	-829.5108642578127	-61.84930419921876	428.4516906738282	-838.3945922851565	-40.79586029052735	382.2934875488282	-864.4570922851565	-83.41767883300783	202.7992553710938	-855.7314453125002	-35.83409118652344	220.2635040283204	-936.3601684570315	-131.4629974365235	161.8479309082032	-922.2026367187502	90.7128372192383	156.6332397460938	-897.328308105469	85.43782043457033	167.5597534179688	-850.343688964844	31.63949775695801	148.2302856445313	-809.7430419921877	
